<svg xmlns="http://www.w3.org/2000/svg" xmlns:xlink="http://www.w3.org/1999/xlink" width="500" zoomAndPan="magnify" viewBox="0 0 375 374.999991" height="500" preserveAspectRatio="xMidYMid meet" version="1.0"><defs><clipPath id="09fe08683b"><path d="M 0 0 L 187.5 0 L 187.5 289.5 L 0 289.5 Z M 0 0 " clip-rule="nonzero"/></clipPath><clipPath id="5158eefa50"><path d="M 187.5 85.5 L 375 85.5 L 375 375 L 187.5 375 Z M 187.5 85.5 " clip-rule="nonzero"/></clipPath></defs><g clip-path="url(#09fe08683b)"><path fill="#13110c" d="M 107.542969 252.542969 C 103.871094 250.484375 100.257812 248.261719 96.753906 245.925781 C 91.082031 242.09375 85.574219 237.980469 80.460938 233.476562 C 75.289062 229.03125 70.394531 224.195312 65.945312 219.027344 C 61.441406 213.859375 57.4375 208.359375 53.933594 202.523438 C 51.320312 198.1875 49.09375 193.683594 47.203125 188.960938 C 50.429688 194.964844 54.824219 200.355469 59.9375 204.910156 C 63.332031 207.96875 67.113281 210.636719 71.171875 212.914062 C 75.175781 215.136719 79.457031 216.972656 83.796875 218.417969 C 88.1875 219.863281 92.695312 220.808594 97.199219 221.472656 C 97.753906 221.53125 98.308594 221.640625 98.921875 221.695312 L 100.644531 221.863281 C 101.8125 221.972656 102.925781 222.140625 104.09375 222.140625 C 105.261719 222.195312 106.375 222.25 107.542969 222.308594 L 110.988281 222.363281 C 112.714844 222.363281 114.4375 222.308594 116.105469 222.25 C 112.15625 223.253906 108.207031 224.417969 104.484375 225.585938 C 92.859375 229.144531 97.363281 240.648438 107.542969 252.542969 M 127.503906 209.582031 C 139.460938 203.855469 157.8125 213.136719 157.8125 213.136719 C 143.964844 198.355469 126.058594 203.855469 106.539062 207.191406 C 107.988281 196.6875 136.125 196.242188 136.125 196.242188 C 111.324219 186.238281 97.808594 203.800781 73.617188 197.351562 C 65.945312 195.296875 59.660156 190.296875 55.488281 182.847656 C 46.925781 167.5625 43.089844 150.890625 43.535156 143.277344 C 42.644531 147.222656 41.867188 151.667969 41.308594 156.617188 C 41.253906 159.0625 41.253906 161.507812 41.421875 163.953125 C 41.808594 170.789062 43.199219 177.511719 45.367188 183.960938 C 45.648438 184.847656 45.980469 185.738281 46.3125 186.628906 C 47.761719 189.292969 49.429688 191.851562 51.320312 194.242188 C 54.042969 197.855469 57.214844 201.132812 60.660156 204.023438 C 62.386719 205.523438 64.164062 206.855469 66.054688 208.136719 C 67 208.746094 67.945312 209.359375 68.890625 209.96875 C 69.894531 210.523438 70.839844 211.136719 71.839844 211.636719 C 75.789062 213.804688 79.957031 215.582031 84.242188 216.972656 C 88.523438 218.363281 92.972656 219.363281 97.421875 220.027344 C 97.976562 220.140625 98.53125 220.25 99.089844 220.308594 L 100.757812 220.527344 C 101.871094 220.640625 102.980469 220.808594 104.148438 220.863281 L 107.542969 221.085938 L 110.933594 221.195312 C 114.269531 221.25 117.664062 221.195312 121 221.027344 C 139.515625 216.972656 157.089844 217.640625 156.921875 237.925781 C 164.488281 210.304688 132.734375 210.082031 127.503906 209.582031 M 110.210938 255.488281 C 105.261719 253.097656 100.421875 250.375 95.753906 247.429688 C 89.855469 243.761719 84.296875 239.59375 79.011719 235.144531 C 73.730469 230.644531 68.78125 225.808594 64.164062 220.527344 C 59.660156 215.25 55.488281 209.636719 51.988281 203.632812 C 48.871094 198.1875 46.203125 192.519531 44.199219 186.570312 C 44.3125 189.574219 44.644531 192.519531 45.257812 195.410156 C 46.089844 199.578125 47.257812 203.6875 48.59375 207.746094 C 49.984375 211.804688 51.542969 215.75 53.320312 219.640625 C 55.101562 223.53125 56.992188 227.363281 59.050781 231.089844 C 61.105469 234.867188 63.273438 238.480469 65.667969 242.09375 C 68.003906 245.648438 70.503906 249.152344 73.117188 252.484375 C 75.007812 254.820312 76.957031 257.097656 79.011719 259.320312 C 79.570312 257.933594 80.738281 257.152344 82.128906 257.265625 C 84.628906 261.15625 88.1875 265.324219 92.136719 269.269531 C 103.203125 280.386719 117.550781 290.109375 122.445312 289.445312 C 92.859375 267.992188 89.023438 252.261719 95.25 256.042969 C 101.480469 259.878906 134.847656 287.054688 144.410156 281.332031 C 134.234375 276.773438 120.21875 266.269531 110.210938 255.488281 M 78.789062 260.265625 C 76.511719 258.042969 74.34375 255.652344 72.285156 253.207031 C 66.777344 246.59375 61.996094 239.371094 57.824219 231.8125 C 53.710938 224.253906 50.09375 216.359375 47.539062 208.136719 C 46.257812 204.023438 45.203125 199.800781 44.535156 195.574219 C 44.480469 195.019531 44.367188 194.519531 44.3125 193.964844 L 44.144531 192.351562 C 44.035156 191.296875 43.976562 190.183594 43.921875 189.128906 L 43.867188 188.292969 C 43.867188 188.015625 43.867188 187.738281 43.867188 187.460938 L 43.867188 185.847656 C 43.867188 185.847656 43.867188 185.792969 43.867188 185.792969 C 43.757812 185.40625 43.589844 184.960938 43.476562 184.570312 C 41.808594 179.011719 40.699219 173.289062 40.308594 167.507812 C 38.363281 208.914062 49.371094 268.992188 95.753906 281.832031 C 81.625 272.882812 78.011719 264.546875 78.789062 260.265625 M 43.921875 141.164062 C 32.410156 148.5 18.453125 164.285156 15.339844 179.070312 C 15.785156 156.558594 31.523438 143.445312 36.914062 130.382812 C 32.800781 135.773438 15.226562 142.832031 5.828125 141.164062 C 6.332031 141.054688 6.886719 141 7.386719 140.886719 C 10.113281 140.332031 12.78125 139.554688 15.394531 138.609375 C 20.621094 136.71875 25.628906 134.164062 30.296875 131.105469 C 34.914062 127.9375 39.140625 124.214844 42.53125 119.710938 C 44.199219 117.488281 45.648438 115.042969 46.703125 112.488281 C 47.761719 109.929688 48.59375 107.207031 48.929688 104.484375 C 47.816406 109.929688 45.257812 114.933594 41.921875 119.269531 C 38.527344 123.546875 34.300781 127.214844 29.742188 130.328125 C 27.460938 131.882812 25.070312 133.273438 22.625 134.550781 C 20.175781 135.828125 17.675781 136.941406 15.117188 137.941406 C 12.558594 138.941406 9.945312 139.777344 7.21875 140.441406 C 6.441406 140.664062 5.605469 140.832031 4.828125 141 C 4.328125 140.886719 3.828125 140.664062 3.328125 140.5 C 11.445312 141.441406 39.585938 119.492188 37.695312 116.15625 C 35.804688 112.820312 21.011719 120.433594 15.726562 132.828125 C 15.503906 132.160156 15.394531 131.550781 15.285156 130.828125 C 15.726562 129.660156 16.230469 128.492188 16.730469 127.328125 C 17.839844 125.046875 19.121094 122.824219 20.566406 120.769531 C 22.011719 118.710938 23.679688 116.765625 25.40625 114.933594 C 27.183594 113.097656 29.074219 111.429688 31.078125 109.929688 C 35.082031 106.875 39.53125 104.316406 44.199219 102.316406 C 46.535156 101.316406 48.929688 100.484375 51.375 99.761719 C 53.820312 99.09375 56.324219 98.539062 58.882812 98.648438 C 57.601562 98.480469 56.324219 98.539062 55.046875 98.648438 C 53.765625 98.816406 52.488281 99.039062 51.261719 99.316406 C 48.761719 99.871094 46.3125 100.648438 43.921875 101.59375 C 39.140625 103.484375 34.636719 105.984375 30.519531 109.097656 C 26.40625 112.210938 22.789062 115.988281 19.953125 120.269531 C 18.5625 122.4375 17.339844 124.714844 16.339844 127.046875 C 15.949219 128.050781 15.5625 129.105469 15.226562 130.160156 C 14.003906 118.488281 27.519531 101.984375 47.148438 94.148438 C 48.09375 91.3125 49.261719 88.589844 50.539062 85.976562 C 36.472656 91.8125 21.011719 88.867188 21.011719 88.867188 C 21.011719 88.867188 21.121094 88.8125 21.34375 88.757812 C 23.011719 89.035156 24.679688 89.199219 26.40625 89.089844 C 27.296875 89.035156 28.242188 88.980469 29.128906 88.8125 L 30.464844 88.589844 C 30.910156 88.535156 31.355469 88.421875 31.800781 88.3125 C 32.246094 88.199219 32.691406 88.144531 33.132812 88.035156 L 34.46875 87.699219 C 35.359375 87.476562 36.191406 87.199219 37.082031 86.921875 C 40.53125 85.8125 43.867188 84.476562 47.203125 83.03125 C 50.539062 81.640625 53.820312 80.140625 57.046875 78.585938 C 53.597656 79.585938 50.207031 80.808594 46.816406 81.976562 C 45.089844 82.585938 43.421875 83.199219 41.753906 83.753906 C 40.917969 84.03125 40.085938 84.367188 39.195312 84.644531 C 38.363281 84.921875 37.527344 85.253906 36.636719 85.476562 C 35.804688 85.753906 34.96875 86.03125 34.078125 86.253906 L 32.800781 86.644531 C 32.355469 86.753906 31.964844 86.867188 31.523438 86.976562 C 29.796875 87.421875 28.074219 87.699219 26.292969 87.921875 C 25.183594 88.035156 24.015625 88.089844 22.847656 88.035156 C 26.015625 86.644531 32.246094 83.367188 34.359375 78.808594 C 34.359375 78.808594 21.457031 87.367188 -0.0078125 86.421875 C -0.0078125 86.421875 21.011719 77.363281 19.066406 74.027344 C 17.175781 70.695312 6.164062 74.972656 1.4375 83.085938 C 6.21875 62.578125 19.953125 58.746094 31.964844 59.746094 C 44.421875 60.800781 52.375 68.082031 60.160156 72.195312 C 63.777344 68.414062 68.058594 65.191406 73.007812 62.578125 C 78.734375 65.414062 82.238281 71.582031 81.125 77.863281 C 80.347656 82.199219 77.902344 87.867188 77.121094 89.699219 C 75.007812 91.925781 73.0625 94.3125 71.285156 96.757812 C 68.667969 100.371094 66.390625 104.152344 64.277344 108.097656 C 62.21875 112.042969 60.382812 116.042969 58.714844 120.15625 C 57.101562 124.269531 55.710938 128.492188 54.542969 132.773438 C 53.375 137.050781 52.429688 141.386719 51.765625 145.777344 C 51.097656 150.167969 50.761719 154.558594 50.761719 159.003906 C 50.820312 163.453125 51.207031 167.84375 52.265625 172.121094 C 48.425781 162.671875 45.480469 152.058594 43.921875 141.164062 M 59.996094 77.753906 C 55.65625 74.695312 50.984375 72.140625 46.035156 70.136719 C 43.535156 69.136719 41.03125 68.304688 38.417969 67.636719 C 35.804688 66.96875 33.191406 66.527344 30.464844 66.304688 C 27.796875 66.082031 25.070312 66.082031 22.402344 66.414062 C 19.730469 66.746094 17.0625 67.359375 14.558594 68.472656 L 13.613281 68.859375 L 12.726562 69.304688 C 12.113281 69.582031 11.558594 69.972656 11 70.304688 C 9.890625 71.082031 8.777344 71.917969 7.886719 72.859375 C 5.941406 74.75 4.550781 77.140625 3.714844 79.640625 C 4.828125 77.25 6.386719 75.085938 8.386719 73.363281 C 10.335938 71.636719 12.613281 70.359375 15.0625 69.414062 C 16.285156 68.972656 17.507812 68.582031 18.785156 68.304688 C 19.398438 68.191406 20.066406 68.027344 20.675781 67.914062 C 21.34375 67.859375 21.957031 67.691406 22.625 67.691406 C 25.183594 67.414062 27.796875 67.414062 30.410156 67.636719 C 35.636719 68.082031 40.753906 69.359375 45.703125 71.082031 C 50.539062 72.917969 55.324219 75.195312 59.996094 77.753906 M 49.761719 138.054688 C 49.875 138.832031 49.984375 139.609375 50.207031 140.386719 C 50.09375 139.554688 49.984375 138.777344 49.929688 137.996094 C 49.929688 137.941406 49.929688 137.886719 49.929688 137.832031 C 49.875 137.386719 49.816406 136.941406 49.816406 136.550781 L 49.761719 135.273438 C 49.761719 133.550781 49.816406 131.773438 50.09375 130.050781 C 50.152344 129.160156 50.316406 128.328125 50.484375 127.492188 C 50.652344 126.660156 50.820312 125.769531 51.042969 124.9375 C 51.429688 123.269531 51.929688 121.601562 52.488281 119.933594 C 54.710938 113.320312 57.882812 107.097656 61.605469 101.261719 C 61.941406 100.761719 62.273438 100.207031 62.609375 99.703125 C 64.164062 97.316406 65.832031 94.980469 67.613281 92.703125 C 68.667969 91.3125 69.726562 89.921875 70.671875 88.421875 C 71.171875 87.699219 71.617188 86.921875 72.007812 86.089844 C 72.394531 85.253906 72.785156 84.421875 72.839844 83.476562 C 72.894531 82.976562 72.730469 82.421875 72.339844 81.976562 C 71.949219 81.585938 71.394531 81.421875 70.949219 81.363281 C 70.003906 81.253906 69.113281 81.421875 68.226562 81.585938 C 66.5 81.976562 64.832031 82.53125 63.164062 83.144531 C 59.882812 84.421875 56.714844 85.921875 53.597656 87.476562 C 56.824219 86.089844 60.050781 84.699219 63.332031 83.585938 C 65 83.03125 66.613281 82.476562 68.335938 82.144531 C 69.171875 81.976562 70.058594 81.863281 70.839844 81.976562 C 71.226562 82.03125 71.617188 82.144531 71.839844 82.421875 C 72.0625 82.644531 72.117188 82.976562 72.117188 83.367188 C 72.0625 84.144531 71.671875 84.921875 71.339844 85.699219 C 70.949219 86.476562 70.503906 87.199219 70.003906 87.921875 C 69.058594 89.367188 68.003906 90.757812 66.945312 92.144531 C 65.777344 93.648438 64.609375 95.148438 63.554688 96.703125 C 62.609375 98.039062 61.71875 99.371094 60.828125 100.707031 C 58.9375 103.652344 57.269531 106.761719 55.710938 109.875 C 54.210938 113.042969 52.820312 116.265625 51.820312 119.65625 C 51.320312 121.324219 50.875 123.046875 50.484375 124.769531 C 50.261719 125.605469 50.152344 126.492188 49.984375 127.382812 L 49.816406 128.714844 C 49.761719 129.160156 49.707031 129.605469 49.707031 130.050781 C 49.371094 132.660156 49.429688 135.386719 49.761719 138.054688 M 112.210938 96.09375 C 111.042969 100.648438 108.429688 105.316406 104.929688 110.097656 C 110.488281 115.265625 119.109375 121.378906 124.113281 129.996094 C 130.453125 140.777344 129.394531 159.449219 120.21875 170.675781 C 119.71875 171.289062 119.21875 171.84375 118.664062 172.398438 C 119.941406 169.121094 120.886719 165.730469 121.445312 162.285156 C 122.554688 155.226562 122 147.945312 119.886719 141.109375 C 117.71875 134.273438 113.9375 127.992188 108.988281 122.878906 C 106.484375 120.324219 103.703125 118.046875 100.703125 116.15625 C 98.085938 114.488281 95.363281 113.042969 92.472656 111.933594 C 92.636719 111.429688 92.859375 110.988281 93.027344 110.542969 C 92.804688 110.929688 92.527344 111.375 92.304688 111.820312 C 91.914062 111.652344 91.582031 111.542969 91.191406 111.375 C 91.582031 111.542969 91.914062 111.710938 92.304688 111.875 C 90.414062 115.488281 88.523438 121.601562 88.746094 128.105469 C 71.839844 145 52.652344 162.171875 54.988281 178.125 C 54.042969 176.234375 53.210938 174.234375 52.375 172.234375 C 51.820312 167.84375 51.765625 163.507812 52.042969 159.117188 C 52.320312 154.78125 52.933594 150.445312 53.710938 146.167969 C 54.542969 141.886719 55.601562 137.664062 56.824219 133.496094 C 58.046875 129.328125 59.4375 125.214844 61.050781 121.15625 C 62.609375 117.101562 64.441406 113.097656 66.390625 109.265625 C 68.335938 105.375 70.503906 101.59375 72.894531 97.980469 C 74.730469 95.257812 76.621094 92.648438 78.789062 90.144531 C 84.242188 89.421875 100.480469 88.257812 112.210938 96.09375 M 100.535156 107.761719 C 99.699219 107.542969 98.921875 107.261719 98.253906 106.820312 C 97.921875 106.597656 97.644531 106.261719 97.363281 105.984375 C 97.199219 105.652344 97.03125 105.316406 96.917969 104.984375 C 96.917969 104.929688 96.917969 104.929688 96.917969 104.875 C 96.753906 104.09375 96.863281 103.261719 96.917969 102.429688 C 97.03125 101.59375 97.199219 100.761719 97.308594 99.925781 C 97.421875 99.09375 97.421875 98.203125 97.253906 97.371094 C 97.085938 96.480469 96.585938 95.703125 95.917969 95.09375 C 95.25 94.480469 94.472656 94.089844 93.695312 93.757812 C 93.472656 93.703125 93.304688 93.589844 93.082031 93.535156 C 92.859375 93.480469 92.695312 93.425781 92.472656 93.371094 C 92.027344 93.257812 91.582031 93.257812 91.136719 93.257812 C 89.300781 93.371094 87.742188 94.257812 86.355469 95.257812 C 84.964844 96.257812 83.738281 97.425781 82.570312 98.648438 C 80.238281 101.148438 78.234375 103.816406 76.398438 106.652344 C 74.5625 109.488281 72.839844 112.375 71.285156 115.320312 C 69.726562 118.269531 68.226562 121.324219 66.890625 124.382812 C 64.277344 130.550781 61.941406 136.941406 60.941406 143.554688 C 61.605469 140.277344 62.609375 137.050781 63.777344 133.941406 C 64.886719 130.773438 66.167969 127.714844 67.558594 124.660156 C 70.339844 118.601562 73.453125 112.65625 77.179688 107.152344 C 79.011719 104.375 80.960938 101.648438 83.183594 99.203125 C 84.296875 97.980469 85.519531 96.816406 86.796875 95.871094 C 87.464844 95.371094 88.132812 94.925781 88.855469 94.59375 C 89.578125 94.257812 90.359375 93.980469 91.136719 93.925781 C 91.527344 93.925781 91.914062 93.925781 92.304688 93.980469 C 92.472656 94.035156 92.695312 94.089844 92.859375 94.148438 C 93.027344 94.203125 93.25 94.257812 93.417969 94.3125 C 94.195312 94.59375 94.917969 94.980469 95.472656 95.480469 C 96.085938 95.980469 96.476562 96.648438 96.699219 97.425781 C 96.863281 98.203125 96.863281 99.039062 96.808594 99.816406 C 96.753906 100.648438 96.640625 101.484375 96.53125 102.316406 C 96.476562 103.152344 96.417969 104.039062 96.640625 104.875 C 96.640625 104.984375 96.699219 105.097656 96.753906 105.152344 C 96.863281 105.484375 97.03125 105.761719 97.199219 106.039062 C 97.476562 106.375 97.753906 106.707031 98.144531 106.875 C 98.921875 107.375 99.699219 107.597656 100.535156 107.761719 M 116.050781 174.789062 C 116.71875 174.289062 117.328125 173.734375 117.941406 173.175781 C 118.050781 172.898438 118.164062 172.675781 118.21875 172.398438 C 119.441406 169.066406 120.277344 165.675781 120.777344 162.171875 C 121.222656 158.671875 121.386719 155.171875 121.109375 151.667969 C 120.832031 148.167969 120.164062 144.722656 119.109375 141.386719 C 117.050781 134.664062 113.378906 128.492188 108.542969 123.378906 C 106.152344 120.824219 103.480469 118.488281 100.535156 116.488281 C 98.03125 114.710938 95.363281 113.210938 92.582031 111.933594 C 89.746094 119.546875 88.078125 132.496094 95.917969 142.054688 C 96.699219 143 97.53125 143.886719 98.476562 144.722656 C 98.476562 144.722656 94.585938 131.996094 97.808594 125.714844 C 98.308594 124.714844 99.03125 123.882812 99.921875 123.269531 C 97.753906 125.4375 96.808594 150.78125 111.265625 160.671875 C 112.878906 161.785156 114.660156 162.671875 116.660156 163.339844 C 116.660156 163.339844 109.878906 157.726562 109.820312 149.835938 C 109.820312 149.113281 109.878906 148.390625 109.988281 147.613281 C 116.996094 148.558594 121.277344 163.339844 116.050781 174.789062 M 187.398438 63.414062 C 186.175781 62.46875 184.671875 61.800781 183.171875 61.46875 C 181.671875 61.078125 180.113281 60.96875 178.554688 61.023438 C 175.441406 61.132812 172.382812 61.800781 169.378906 62.636719 C 163.375 64.300781 157.589844 66.746094 151.53125 68.691406 C 150.027344 69.191406 148.472656 69.636719 146.914062 69.972656 C 145.300781 70.304688 143.6875 70.582031 141.910156 70.472656 C 141.019531 70.414062 140.128906 70.25 139.183594 69.914062 C 138.738281 69.75 138.292969 69.472656 137.847656 69.191406 C 137.625 69.027344 137.460938 68.859375 137.292969 68.691406 C 137.183594 68.582031 137.125 68.527344 137.015625 68.414062 L 136.792969 68.191406 C 135.847656 67.136719 134.679688 66.191406 133.679688 65.914062 C 133.179688 65.746094 132.734375 65.804688 132.234375 65.914062 C 131.730469 66.023438 131.175781 66.359375 130.5625 66.746094 C 130.507812 66.804688 130.453125 66.804688 130.398438 66.859375 C 128.894531 75.585938 133.066406 90.980469 127.5625 98.039062 C 122.945312 103.929688 120.832031 99.203125 113.882812 94.3125 C 113.992188 94.3125 114.101562 94.3125 114.269531 94.3125 C 115.160156 94.3125 116.105469 94.203125 116.941406 93.980469 C 118.71875 93.535156 120.277344 92.425781 121.386719 90.921875 C 122.5 89.421875 123.167969 87.699219 123.390625 85.867188 C 123.5 84.976562 123.5 84.03125 123.390625 83.144531 C 123.222656 82.253906 123 81.363281 122.554688 80.585938 C 123.222656 82.253906 123.335938 84.085938 123.058594 85.8125 C 122.777344 87.535156 122.113281 89.257812 121.054688 90.589844 C 120 91.980469 118.550781 93.035156 116.828125 93.589844 C 115.773438 93.925781 114.714844 94.089844 113.601562 94.089844 C 112.769531 93.535156 111.878906 92.980469 110.933594 92.425781 C 110.542969 91.980469 110.210938 91.480469 109.878906 90.980469 C 109.152344 89.867188 108.652344 88.644531 108.429688 87.367188 C 108.265625 86.089844 108.375 84.753906 108.820312 83.476562 C 109.265625 82.253906 110.042969 81.085938 110.933594 80.085938 C 112.824219 78.085938 115.328125 76.75 117.996094 75.917969 C 119.332031 75.527344 120.722656 75.195312 122.113281 75.027344 C 123.5 74.863281 124.949219 74.804688 126.335938 74.863281 C 124.949219 74.75 123.5 74.695312 122.054688 74.804688 C 120.609375 74.917969 119.21875 75.085938 117.828125 75.472656 C 115.050781 76.140625 112.324219 77.363281 110.210938 79.417969 C 109.152344 80.417969 108.207031 81.640625 107.652344 83.03125 C 107.097656 84.421875 106.820312 85.976562 106.984375 87.535156 C 107.097656 88.699219 107.429688 89.8125 107.929688 90.867188 C 105.875 89.921875 103.539062 89.089844 100.8125 88.476562 C 87.523438 85.421875 82.128906 89.644531 81.625 87.089844 C 84.464844 84.253906 87.742188 81.753906 91.46875 80.140625 C 87.855469 81.199219 84.574219 83.199219 81.683594 85.589844 C 81.90625 84.367188 82.40625 82.53125 83.128906 79.917969 C 84.40625 75.308594 83.574219 71.636719 82.015625 68.691406 C 82.070312 68.691406 82.128906 68.691406 82.183594 68.691406 C 82.683594 68.75 83.238281 68.75 83.738281 68.691406 C 84.796875 68.636719 85.796875 68.582031 86.796875 68.414062 C 88.800781 68.082031 90.800781 67.46875 92.636719 66.414062 C 94.417969 65.414062 95.972656 63.800781 96.640625 61.855469 C 96.976562 60.914062 97.140625 59.855469 97.140625 58.855469 C 97.140625 57.855469 96.976562 56.855469 96.753906 55.855469 C 96.917969 56.855469 97.085938 57.855469 97.03125 58.855469 C 96.976562 59.855469 96.808594 60.855469 96.417969 61.800781 C 95.695312 63.691406 94.195312 65.136719 92.414062 66.023438 C 90.636719 66.96875 88.6875 67.46875 86.742188 67.691406 C 85.742188 67.804688 84.742188 67.859375 83.738281 67.859375 C 83.238281 67.859375 82.738281 67.804688 82.238281 67.75 C 81.960938 67.691406 81.683594 67.691406 81.40625 67.636719 C 80.015625 65.414062 78.347656 63.578125 76.957031 62.023438 C 77.234375 61.523438 77.566406 61.078125 77.957031 60.632812 C 79.011719 59.410156 80.292969 58.355469 81.683594 57.523438 C 83.074219 56.632812 84.574219 55.964844 86.132812 55.578125 C 86.910156 55.355469 87.742188 55.242188 88.523438 55.1875 C 89.355469 55.132812 90.136719 55.1875 90.96875 55.355469 C 89.414062 54.855469 87.6875 54.855469 86.019531 55.1875 C 84.40625 55.519531 82.851562 56.1875 81.40625 57.078125 C 80.015625 57.964844 78.679688 59.078125 77.679688 60.355469 C 77.34375 60.800781 77.011719 61.300781 76.734375 61.746094 C 74.453125 59.132812 73.339844 57.300781 76.84375 55.519531 C 76.84375 55.519531 74.621094 60.855469 87.355469 50.742188 C 94.417969 45.183594 101.589844 45.90625 106.484375 46.40625 C 106.539062 46.296875 106.539062 46.238281 106.539062 46.128906 C 106.652344 45.683594 106.652344 45.296875 106.539062 44.851562 C 106.429688 44.40625 106.207031 43.960938 105.875 43.460938 C 105.539062 43.015625 105.148438 42.570312 104.707031 42.128906 C 104.484375 41.90625 104.261719 41.683594 103.980469 41.515625 L 103.539062 41.125 C 103.371094 40.960938 103.257812 40.847656 103.09375 40.683594 C 102.535156 40.015625 102.089844 39.292969 101.8125 38.515625 C 101.535156 37.738281 101.367188 36.957031 101.257812 36.179688 C 101.089844 34.625 101.203125 33.179688 101.425781 31.789062 C 101.867188 28.957031 102.59375 26.289062 103.257812 23.621094 C 103.925781 20.953125 104.648438 18.285156 105.09375 15.617188 C 105.539062 12.949219 105.761719 10.171875 105.429688 7.503906 C 105.09375 4.835938 104.09375 2.167969 102.371094 0 C 104.261719 2.054688 105.484375 4.667969 105.984375 7.390625 C 106.484375 10.171875 106.429688 12.949219 106.152344 15.726562 C 105.875 18.507812 105.316406 21.230469 104.816406 23.953125 C 104.316406 26.675781 103.761719 29.34375 103.539062 32.011719 C 103.425781 33.347656 103.425781 34.625 103.648438 35.847656 C 103.871094 37.070312 104.316406 38.125 105.039062 38.847656 L 105.316406 39.125 L 105.652344 39.347656 C 105.929688 39.570312 106.261719 39.792969 106.539062 40.015625 C 107.097656 40.515625 107.707031 41.015625 108.207031 41.628906 C 108.710938 42.238281 109.210938 42.960938 109.542969 43.851562 C 109.878906 44.683594 109.933594 45.683594 109.820312 46.574219 C 111.042969 46.519531 111.824219 46.238281 112.15625 45.40625 C 113.601562 41.570312 119.21875 44.960938 120.277344 48.242188 C 122.667969 55.855469 137.90625 55.855469 132.175781 62.078125 C 132.066406 62.191406 131.953125 62.300781 131.898438 62.46875 C 132.789062 62.355469 133.789062 62.46875 134.566406 62.800781 C 135.570312 63.191406 136.347656 63.746094 137.015625 64.359375 C 137.683594 64.96875 138.292969 65.636719 138.792969 66.246094 L 138.960938 66.46875 C 139.015625 66.527344 139.015625 66.582031 139.074219 66.636719 C 139.183594 66.746094 139.238281 66.804688 139.351562 66.914062 C 139.574219 67.082031 139.796875 67.246094 140.074219 67.359375 C 140.628906 67.636719 141.242188 67.75 141.910156 67.859375 C 143.300781 68.027344 144.800781 67.859375 146.300781 67.636719 C 147.804688 67.414062 149.304688 67.027344 150.804688 66.636719 C 156.8125 65.023438 162.761719 62.914062 168.992188 61.523438 C 172.105469 60.855469 175.21875 60.300781 178.445312 60.410156 C 180.058594 60.46875 181.613281 60.632812 183.171875 61.078125 C 184.730469 61.691406 186.175781 62.414062 187.398438 63.414062 M 94.082031 49.351562 C 94.25 50.1875 94.304688 51.074219 94.304688 51.910156 C 94.304688 52.742188 94.140625 53.632812 93.972656 54.410156 C 93.527344 56.023438 92.75 57.578125 91.636719 58.855469 C 90.582031 60.132812 89.246094 61.246094 87.800781 62.078125 C 87.078125 62.46875 86.296875 62.859375 85.519531 63.023438 C 84.851562 63.191406 84.183594 63.300781 83.519531 63.246094 C 83.519531 62.523438 83.796875 61.800781 84.183594 61.078125 C 84.628906 60.246094 85.242188 59.523438 85.851562 58.855469 C 86.519531 58.1875 87.242188 57.523438 88.023438 57.023438 C 88.410156 56.742188 88.855469 56.523438 89.300781 56.355469 C 89.746094 56.1875 90.191406 56.023438 90.691406 56.078125 C 90.191406 55.964844 89.691406 56.023438 89.191406 56.132812 C 88.6875 56.242188 88.246094 56.464844 87.800781 56.6875 C 86.910156 57.132812 86.074219 57.746094 85.351562 58.410156 C 84.628906 59.078125 83.90625 59.855469 83.40625 60.746094 C 82.90625 61.632812 82.460938 62.636719 82.570312 63.800781 L 82.628906 64.136719 L 82.960938 64.191406 C 83.960938 64.414062 84.90625 64.246094 85.742188 64.023438 C 86.632812 63.746094 87.464844 63.414062 88.1875 62.96875 C 89.746094 62.078125 91.082031 60.855469 92.191406 59.46875 C 92.75 58.746094 93.195312 58.023438 93.582031 57.1875 C 93.972656 56.355469 94.25 55.519531 94.417969 54.632812 C 94.804688 52.796875 94.640625 51.019531 94.082031 49.351562 M 125.613281 78.917969 C 124.113281 78.695312 122.613281 78.808594 121.109375 79.195312 C 119.664062 79.585938 118.21875 80.308594 117.050781 81.308594 C 115.882812 82.308594 114.9375 83.644531 114.492188 85.144531 C 113.992188 86.644531 113.882812 88.257812 114.101562 89.757812 L 114.160156 90.144531 L 114.546875 90.144531 C 115.828125 90.203125 116.882812 89.644531 117.828125 89.035156 C 118.773438 88.421875 119.609375 87.644531 120.277344 86.753906 C 120.945312 85.867188 121.5 84.867188 121.777344 83.808594 C 122.054688 82.753906 122.054688 81.53125 121.5 80.585938 C 121.890625 81.585938 121.722656 82.699219 121.332031 83.644531 C 120.945312 84.589844 120.386719 85.476562 119.664062 86.253906 C 118.996094 87.035156 118.164062 87.699219 117.273438 88.257812 C 116.550781 88.699219 115.714844 89.035156 114.9375 89.089844 C 114.828125 87.8125 114.9375 86.53125 115.328125 85.367188 C 115.773438 84.03125 116.496094 82.808594 117.550781 81.863281 C 118.550781 80.863281 119.832031 80.140625 121.167969 79.640625 C 122.667969 79.195312 124.113281 78.976562 125.613281 78.917969 " fill-opacity="1" fill-rule="nonzero"/></g><g clip-path="url(#5158eefa50)"><path fill="#13110c" d="M 267.457031 122.457031 C 271.128906 124.515625 274.742188 126.738281 278.246094 129.070312 C 283.917969 132.90625 289.425781 137.019531 294.539062 141.519531 C 299.710938 145.964844 304.605469 150.800781 309.054688 155.96875 C 313.558594 161.140625 317.5625 166.640625 321.066406 172.476562 C 323.679688 176.8125 325.90625 181.3125 327.796875 186.039062 C 324.570312 180.035156 320.175781 174.644531 315.0625 170.085938 C 311.667969 167.03125 307.886719 164.363281 303.828125 162.082031 C 299.824219 159.859375 295.542969 158.027344 291.203125 156.582031 C 286.8125 155.136719 282.304688 154.191406 277.800781 153.523438 C 277.246094 153.46875 276.691406 153.359375 276.078125 153.300781 L 274.355469 153.136719 C 273.1875 153.023438 272.074219 152.859375 270.90625 152.859375 C 269.738281 152.800781 268.625 152.746094 267.457031 152.691406 L 264.011719 152.636719 C 262.285156 152.636719 260.5625 152.691406 258.894531 152.746094 C 262.84375 151.746094 266.792969 150.578125 270.515625 149.414062 C 282.140625 145.855469 277.636719 134.351562 267.457031 122.457031 M 247.496094 165.417969 C 235.539062 171.144531 217.1875 161.863281 217.1875 161.863281 C 231.035156 176.644531 248.941406 171.144531 268.460938 167.808594 C 267.011719 178.3125 238.875 178.757812 238.875 178.757812 C 263.675781 188.761719 277.191406 171.199219 301.382812 177.644531 C 309.054688 179.703125 315.339844 184.703125 319.511719 192.152344 C 328.074219 207.433594 331.910156 224.109375 331.464844 231.722656 C 332.355469 227.777344 333.132812 223.328125 333.691406 218.382812 C 333.746094 215.9375 333.746094 213.492188 333.578125 211.046875 C 333.191406 204.210938 331.800781 197.484375 329.632812 191.039062 C 329.351562 190.148438 329.019531 189.261719 328.6875 188.371094 C 327.238281 185.703125 325.570312 183.148438 323.679688 180.757812 C 320.957031 177.144531 317.785156 173.867188 314.339844 170.976562 C 312.613281 169.476562 310.835938 168.140625 308.945312 166.863281 C 308 166.253906 307.054688 165.640625 306.109375 165.03125 C 305.105469 164.472656 304.160156 163.863281 303.160156 163.363281 C 299.210938 161.195312 295.042969 159.417969 290.757812 158.027344 C 286.476562 156.636719 282.027344 155.636719 277.578125 154.96875 C 277.023438 154.859375 276.46875 154.746094 275.910156 154.691406 L 274.242188 154.46875 C 273.128906 154.359375 272.019531 154.191406 270.851562 154.136719 L 267.457031 153.914062 L 264.066406 153.804688 C 260.730469 153.746094 257.335938 153.804688 254 153.96875 C 235.484375 158.027344 217.910156 157.359375 218.078125 137.074219 C 210.511719 164.695312 242.265625 164.917969 247.496094 165.417969 M 264.789062 119.511719 C 269.738281 121.902344 274.578125 124.625 279.246094 127.570312 C 285.144531 131.238281 290.703125 135.40625 295.988281 139.851562 C 301.269531 144.355469 306.21875 149.191406 310.835938 154.46875 C 315.339844 159.75 319.511719 165.363281 323.011719 171.363281 C 326.128906 176.8125 328.796875 182.480469 330.800781 188.425781 C 330.6875 185.425781 330.355469 182.480469 329.742188 179.589844 C 328.910156 175.421875 327.742188 171.308594 326.40625 167.253906 C 325.015625 163.195312 323.457031 159.25 321.679688 155.359375 C 319.898438 151.46875 318.007812 147.632812 315.949219 143.910156 C 313.894531 140.132812 311.726562 136.519531 309.332031 132.90625 C 306.996094 129.347656 304.496094 125.847656 301.882812 122.511719 C 299.992188 120.179688 298.042969 117.898438 295.988281 115.675781 C 295.429688 117.066406 294.261719 117.84375 292.871094 117.734375 C 290.371094 113.84375 286.8125 109.675781 282.863281 105.730469 C 271.796875 94.613281 257.449219 84.886719 252.554688 85.554688 C 282.140625 107.007812 285.976562 122.734375 279.75 118.957031 C 273.519531 115.121094 240.152344 87.945312 230.589844 93.667969 C 240.765625 98.226562 254.78125 108.730469 264.789062 119.511719 M 296.210938 114.730469 C 298.488281 116.957031 300.65625 119.34375 302.714844 121.789062 C 308.222656 128.402344 313.003906 135.628906 317.175781 143.1875 C 321.289062 150.746094 324.90625 158.636719 327.460938 166.863281 C 328.742188 170.976562 329.796875 175.199219 330.464844 179.421875 C 330.519531 179.980469 330.632812 180.480469 330.6875 181.035156 L 330.855469 182.648438 C 330.964844 183.703125 331.023438 184.816406 331.078125 185.871094 L 331.132812 186.703125 C 331.132812 186.980469 331.132812 187.261719 331.132812 187.539062 L 331.132812 189.148438 C 331.132812 189.148438 331.132812 189.207031 331.132812 189.207031 C 331.242188 189.59375 331.410156 190.039062 331.523438 190.429688 C 333.191406 195.984375 334.300781 201.710938 334.691406 207.488281 C 336.636719 166.085938 325.628906 106.007812 279.246094 93.167969 C 293.375 102.117188 296.988281 110.453125 296.210938 114.730469 M 331.078125 233.832031 C 342.589844 226.496094 356.546875 210.714844 359.660156 195.929688 C 359.214844 218.4375 343.476562 231.554688 338.085938 244.617188 C 342.199219 239.222656 359.773438 232.167969 369.171875 233.832031 C 368.667969 233.945312 368.113281 234 367.613281 234.113281 C 364.886719 234.667969 362.21875 235.445312 359.605469 236.390625 C 354.378906 238.28125 349.371094 240.835938 344.703125 243.894531 C 340.085938 247.0625 335.859375 250.785156 332.46875 255.285156 C 330.800781 257.507812 329.351562 259.953125 328.296875 262.511719 C 327.238281 265.066406 326.40625 267.789062 326.070312 270.515625 C 327.183594 265.066406 329.742188 260.066406 333.078125 255.730469 C 336.472656 251.453125 340.699219 247.785156 345.257812 244.671875 C 347.539062 243.113281 349.929688 241.726562 352.375 240.445312 C 354.824219 239.167969 357.324219 238.058594 359.882812 237.058594 C 362.441406 236.054688 365.054688 235.222656 367.78125 234.554688 C 368.558594 234.332031 369.394531 234.167969 370.171875 234 C 370.671875 234.113281 371.171875 234.332031 371.671875 234.5 C 363.554688 233.554688 335.414062 255.507812 337.304688 258.84375 C 339.195312 262.175781 353.988281 254.5625 359.273438 242.171875 C 359.496094 242.835938 359.605469 243.449219 359.714844 244.171875 C 359.273438 245.339844 358.769531 246.503906 358.269531 247.671875 C 357.160156 249.949219 355.878906 252.175781 354.433594 254.230469 C 352.988281 256.285156 351.320312 258.230469 349.59375 260.066406 C 347.816406 261.898438 345.925781 263.566406 343.921875 265.066406 C 339.917969 268.125 335.46875 270.679688 330.800781 272.683594 C 328.464844 273.683594 326.070312 274.515625 323.625 275.238281 C 321.179688 275.90625 318.675781 276.460938 316.117188 276.351562 C 317.398438 276.515625 318.675781 276.460938 319.953125 276.351562 C 321.234375 276.183594 322.511719 275.960938 323.738281 275.683594 C 326.238281 275.128906 328.6875 274.347656 331.078125 273.402344 C 335.859375 271.515625 340.363281 269.011719 344.480469 265.902344 C 348.59375 262.789062 352.210938 259.011719 355.046875 254.730469 C 356.4375 252.5625 357.660156 250.285156 358.660156 247.949219 C 359.050781 246.949219 359.4375 245.894531 359.773438 244.835938 C 360.996094 256.507812 347.480469 273.015625 327.851562 280.851562 C 326.90625 283.6875 325.738281 286.410156 324.460938 289.019531 C 338.527344 283.1875 353.988281 286.132812 353.988281 286.132812 C 353.988281 286.132812 353.878906 286.1875 353.65625 286.242188 C 351.988281 285.964844 350.320312 285.796875 348.59375 285.910156 C 347.703125 285.964844 346.757812 286.019531 345.871094 286.1875 L 344.535156 286.410156 C 344.089844 286.464844 343.644531 286.574219 343.199219 286.6875 C 342.753906 286.796875 342.308594 286.855469 341.867188 286.964844 L 340.53125 287.296875 C 339.640625 287.519531 338.808594 287.796875 337.917969 288.078125 C 334.46875 289.1875 331.132812 290.523438 327.796875 291.96875 C 324.460938 293.355469 321.179688 294.855469 317.953125 296.414062 C 321.402344 295.414062 324.792969 294.191406 328.183594 293.023438 C 329.910156 292.410156 331.578125 291.800781 333.246094 291.246094 C 334.082031 290.964844 334.914062 290.632812 335.804688 290.355469 C 336.636719 290.078125 337.472656 289.742188 338.363281 289.523438 C 339.195312 289.242188 340.03125 288.964844 340.921875 288.742188 L 342.199219 288.355469 C 342.644531 288.242188 343.035156 288.132812 343.476562 288.019531 C 345.203125 287.578125 346.925781 287.296875 348.707031 287.074219 C 349.816406 286.964844 350.984375 286.910156 352.152344 286.964844 C 348.984375 288.355469 342.753906 291.632812 340.640625 296.191406 C 340.640625 296.191406 353.542969 287.632812 375.007812 288.578125 C 375.007812 288.578125 353.988281 297.636719 355.933594 300.96875 C 357.824219 304.304688 368.835938 300.027344 373.5625 291.910156 C 368.78125 312.417969 355.046875 316.253906 343.035156 315.253906 C 330.578125 314.199219 322.625 306.917969 314.839844 302.804688 C 311.222656 306.582031 306.941406 309.808594 301.992188 312.417969 C 296.265625 309.585938 292.761719 303.414062 293.875 297.136719 C 294.652344 292.800781 297.097656 287.132812 297.878906 285.296875 C 299.992188 283.074219 301.9375 280.683594 303.714844 278.238281 C 306.332031 274.625 308.609375 270.847656 310.722656 266.902344 C 312.78125 262.957031 314.617188 258.953125 316.285156 254.839844 C 317.898438 250.730469 319.289062 246.503906 320.457031 242.226562 C 321.625 237.945312 322.570312 233.609375 323.234375 229.21875 C 323.902344 224.828125 324.238281 220.441406 324.238281 215.992188 C 324.179688 211.546875 323.792969 207.15625 322.734375 202.878906 C 326.574219 212.324219 329.519531 222.941406 331.078125 233.832031 M 315.003906 297.246094 C 319.34375 300.304688 324.015625 302.859375 328.964844 304.859375 C 331.464844 305.859375 333.96875 306.695312 336.582031 307.363281 C 339.195312 308.027344 341.808594 308.472656 344.535156 308.695312 C 347.203125 308.917969 349.929688 308.917969 352.597656 308.585938 C 355.269531 308.25 357.9375 307.640625 360.441406 306.527344 L 361.386719 306.140625 L 362.273438 305.695312 C 362.886719 305.417969 363.441406 305.027344 364 304.695312 C 365.109375 303.914062 366.222656 303.082031 367.113281 302.136719 C 369.058594 300.246094 370.449219 297.859375 371.285156 295.355469 C 370.171875 297.746094 368.613281 299.914062 366.613281 301.636719 C 364.664062 303.359375 362.386719 304.636719 359.9375 305.582031 C 358.714844 306.027344 357.492188 306.417969 356.214844 306.695312 C 355.601562 306.804688 354.933594 306.972656 354.324219 307.082031 C 353.65625 307.140625 353.042969 307.304688 352.375 307.304688 C 349.816406 307.585938 347.203125 307.585938 344.589844 307.363281 C 339.363281 306.917969 334.246094 305.640625 329.296875 303.914062 C 324.460938 302.082031 319.675781 299.804688 315.003906 297.246094 M 325.238281 236.945312 C 325.125 236.167969 325.015625 235.390625 324.792969 234.613281 C 324.90625 235.445312 325.015625 236.222656 325.070312 237 C 325.070312 237.058594 325.070312 237.113281 325.070312 237.167969 C 325.125 237.613281 325.183594 238.058594 325.183594 238.445312 L 325.238281 239.726562 C 325.238281 241.449219 325.183594 243.226562 324.90625 244.949219 C 324.847656 245.839844 324.683594 246.671875 324.515625 247.503906 C 324.347656 248.339844 324.179688 249.226562 323.957031 250.0625 C 323.570312 251.730469 323.070312 253.398438 322.511719 255.0625 C 320.289062 261.675781 317.117188 267.902344 313.394531 273.738281 C 313.058594 274.238281 312.726562 274.792969 312.390625 275.292969 C 310.835938 277.683594 309.167969 280.019531 307.386719 282.296875 C 306.332031 283.6875 305.273438 285.074219 304.328125 286.574219 C 303.828125 287.296875 303.382812 288.078125 302.992188 288.910156 C 302.605469 289.742188 302.214844 290.578125 302.160156 291.523438 C 302.105469 292.023438 302.269531 292.578125 302.660156 293.023438 C 303.050781 293.410156 303.605469 293.578125 304.050781 293.632812 C 304.996094 293.746094 305.886719 293.578125 306.773438 293.410156 C 308.5 293.023438 310.167969 292.46875 311.835938 291.855469 C 315.117188 290.578125 318.285156 289.078125 321.402344 287.519531 C 318.175781 288.910156 314.949219 290.300781 311.667969 291.410156 C 310 291.96875 308.386719 292.523438 306.664062 292.855469 C 305.828125 293.023438 304.941406 293.132812 304.160156 293.023438 C 303.773438 292.96875 303.382812 292.855469 303.160156 292.578125 C 302.9375 292.355469 302.882812 292.023438 302.882812 291.632812 C 302.9375 290.855469 303.328125 290.078125 303.660156 289.300781 C 304.050781 288.519531 304.496094 287.796875 304.996094 287.078125 C 305.941406 285.632812 306.996094 284.242188 308.054688 282.851562 C 309.222656 281.351562 310.390625 279.851562 311.445312 278.296875 C 312.390625 276.960938 313.28125 275.628906 314.171875 274.292969 C 316.0625 271.347656 317.730469 268.234375 319.289062 265.125 C 320.789062 261.957031 322.179688 258.730469 323.179688 255.339844 C 323.679688 253.675781 324.125 251.953125 324.515625 250.230469 C 324.738281 249.394531 324.847656 248.503906 325.015625 247.617188 L 325.183594 246.28125 C 325.238281 245.839844 325.292969 245.394531 325.292969 244.949219 C 325.628906 242.335938 325.570312 239.613281 325.238281 236.945312 M 262.789062 278.90625 C 263.957031 274.347656 266.570312 269.679688 270.070312 264.902344 C 264.511719 259.730469 255.890625 253.617188 250.886719 245.003906 C 244.546875 234.222656 245.605469 215.546875 254.78125 204.320312 C 255.28125 203.710938 255.78125 203.15625 256.335938 202.597656 C 255.058594 205.878906 254.113281 209.269531 253.554688 212.714844 C 252.445312 219.773438 253 227.054688 255.113281 233.890625 C 257.28125 240.726562 261.0625 247.003906 266.011719 252.117188 C 268.515625 254.675781 271.296875 256.953125 274.296875 258.84375 C 276.914062 260.511719 279.636719 261.957031 282.527344 263.066406 C 282.363281 263.566406 282.140625 264.011719 281.972656 264.457031 C 282.195312 264.066406 282.472656 263.621094 282.695312 263.179688 C 283.085938 263.34375 283.417969 263.457031 283.808594 263.621094 C 283.417969 263.457031 283.085938 263.289062 282.695312 263.121094 C 284.585938 259.511719 286.476562 253.398438 286.253906 246.894531 C 303.160156 230 322.347656 212.824219 320.011719 196.875 C 320.957031 198.765625 321.789062 200.765625 322.625 202.765625 C 323.179688 207.15625 323.234375 211.492188 322.957031 215.882812 C 322.679688 220.21875 322.066406 224.550781 321.289062 228.832031 C 320.457031 233.109375 319.398438 237.335938 318.175781 241.503906 C 316.953125 245.671875 315.5625 249.785156 313.949219 253.839844 C 312.390625 257.898438 310.558594 261.898438 308.609375 265.734375 C 306.664062 269.625 304.496094 273.402344 302.105469 277.015625 C 300.269531 279.738281 298.378906 282.351562 296.210938 284.851562 C 290.757812 285.574219 274.519531 286.742188 262.789062 278.90625 M 274.464844 267.234375 C 275.300781 267.457031 276.078125 267.734375 276.746094 268.179688 C 277.078125 268.402344 277.355469 268.734375 277.636719 269.011719 C 277.800781 269.347656 277.96875 269.679688 278.082031 270.015625 C 278.082031 270.070312 278.082031 270.070312 278.082031 270.125 C 278.246094 270.902344 278.136719 271.738281 278.082031 272.570312 C 277.96875 273.402344 277.800781 274.238281 277.691406 275.070312 C 277.578125 275.90625 277.578125 276.792969 277.746094 277.628906 C 277.914062 278.515625 278.414062 279.296875 279.082031 279.90625 C 279.75 280.519531 280.527344 280.90625 281.304688 281.242188 C 281.527344 281.296875 281.695312 281.40625 281.917969 281.460938 C 282.140625 281.519531 282.304688 281.574219 282.527344 281.628906 C 282.972656 281.742188 283.417969 281.742188 283.863281 281.742188 C 285.699219 281.628906 287.257812 280.742188 288.644531 279.738281 C 290.035156 278.738281 291.261719 277.574219 292.429688 276.351562 C 294.761719 273.847656 296.765625 271.179688 298.601562 268.347656 C 300.4375 265.511719 302.160156 262.621094 303.714844 259.675781 C 305.273438 256.730469 306.773438 253.675781 308.109375 250.617188 C 310.722656 244.449219 313.058594 238.058594 314.058594 231.445312 C 313.394531 234.722656 312.390625 237.945312 311.222656 241.058594 C 310.113281 244.226562 308.832031 247.28125 307.441406 250.339844 C 304.660156 256.398438 301.546875 262.34375 297.820312 267.847656 C 295.988281 270.625 294.039062 273.347656 291.816406 275.792969 C 290.703125 277.015625 289.480469 278.183594 288.203125 279.128906 C 287.535156 279.628906 286.867188 280.074219 286.144531 280.40625 C 285.421875 280.742188 284.640625 281.019531 283.863281 281.074219 C 283.472656 281.074219 283.085938 281.074219 282.695312 281.019531 C 282.527344 280.960938 282.304688 280.90625 282.140625 280.851562 C 281.972656 280.796875 281.75 280.742188 281.582031 280.683594 C 280.804688 280.40625 280.082031 280.019531 279.527344 279.519531 C 278.914062 279.015625 278.523438 278.351562 278.300781 277.574219 C 278.136719 276.792969 278.136719 275.960938 278.191406 275.183594 C 278.246094 274.347656 278.359375 273.515625 278.46875 272.683594 C 278.523438 271.847656 278.582031 270.957031 278.359375 270.125 C 278.359375 270.015625 278.300781 269.902344 278.246094 269.847656 C 278.136719 269.515625 277.96875 269.234375 277.800781 268.957031 C 277.523438 268.625 277.246094 268.292969 276.855469 268.125 C 276.078125 267.625 275.300781 267.402344 274.464844 267.234375 M 258.949219 200.210938 C 258.28125 200.710938 257.671875 201.265625 257.058594 201.820312 C 256.949219 202.097656 256.835938 202.320312 256.78125 202.597656 C 255.558594 205.933594 254.722656 209.324219 254.222656 212.824219 C 253.777344 216.328125 253.613281 219.828125 253.890625 223.328125 C 254.167969 226.832031 254.835938 230.277344 255.890625 233.609375 C 257.949219 240.335938 261.621094 246.503906 266.457031 251.617188 C 268.847656 254.175781 271.519531 256.507812 274.464844 258.507812 C 276.96875 260.289062 279.636719 261.789062 282.417969 263.066406 C 285.253906 255.453125 286.921875 242.503906 279.082031 232.945312 C 278.300781 232 277.46875 231.109375 276.523438 230.277344 C 276.523438 230.277344 280.414062 243.003906 277.191406 249.285156 C 276.691406 250.285156 275.96875 251.117188 275.078125 251.730469 C 277.246094 249.5625 278.191406 224.21875 263.734375 214.324219 C 262.121094 213.214844 260.339844 212.324219 258.339844 211.660156 C 258.339844 211.660156 265.121094 217.273438 265.179688 225.164062 C 265.179688 225.886719 265.121094 226.609375 265.011719 227.386719 C 258.003906 226.441406 253.722656 211.660156 258.949219 200.210938 M 187.601562 311.585938 C 188.824219 312.53125 190.328125 313.199219 191.828125 313.53125 C 193.328125 313.917969 194.886719 314.03125 196.445312 313.976562 C 199.558594 313.863281 202.617188 313.199219 205.621094 312.363281 C 211.625 310.695312 217.410156 308.25 223.46875 306.304688 C 224.972656 305.804688 226.527344 305.359375 228.085938 305.027344 C 229.699219 304.695312 231.3125 304.417969 233.089844 304.527344 C 233.980469 304.582031 234.871094 304.75 235.816406 305.082031 C 236.261719 305.25 236.707031 305.527344 237.152344 305.804688 C 237.375 305.972656 237.539062 306.140625 237.707031 306.304688 C 237.816406 306.417969 237.875 306.472656 237.984375 306.582031 L 238.207031 306.804688 C 239.152344 307.863281 240.320312 308.808594 241.320312 309.085938 C 241.820312 309.25 242.265625 309.195312 242.765625 309.085938 C 243.269531 308.972656 243.824219 308.640625 244.4375 308.25 C 244.492188 308.195312 244.546875 308.195312 244.601562 308.140625 C 246.105469 299.414062 241.933594 284.019531 247.4375 276.960938 C 252.054688 271.070312 254.167969 275.792969 261.117188 280.683594 C 261.007812 280.683594 260.898438 280.683594 260.730469 280.683594 C 259.839844 280.683594 258.894531 280.796875 258.058594 281.019531 C 256.28125 281.464844 254.722656 282.574219 253.613281 284.074219 C 252.5 285.574219 251.832031 287.296875 251.609375 289.132812 C 251.5 290.023438 251.5 290.964844 251.609375 291.855469 C 251.777344 292.746094 252 293.632812 252.445312 294.414062 C 251.777344 292.746094 251.664062 290.910156 251.941406 289.1875 C 252.222656 287.464844 252.886719 285.742188 253.945312 284.410156 C 255 283.019531 256.449219 281.964844 258.171875 281.40625 C 259.226562 281.074219 260.285156 280.90625 261.398438 280.90625 C 262.230469 281.464844 263.121094 282.019531 264.066406 282.574219 C 264.457031 283.019531 264.789062 283.519531 265.121094 284.019531 C 265.847656 285.132812 266.347656 286.355469 266.570312 287.632812 C 266.734375 288.910156 266.625 290.242188 266.179688 291.523438 C 265.734375 292.746094 264.957031 293.914062 264.066406 294.914062 C 262.175781 296.914062 259.671875 298.246094 257.003906 299.082031 C 255.667969 299.46875 254.277344 299.804688 252.886719 299.96875 C 251.5 300.136719 250.050781 300.191406 248.664062 300.136719 C 250.050781 300.246094 251.5 300.304688 252.945312 300.191406 C 254.390625 300.082031 255.78125 299.914062 257.171875 299.527344 C 259.949219 298.859375 262.675781 297.636719 264.789062 295.578125 C 265.847656 294.578125 266.792969 293.355469 267.347656 291.96875 C 267.902344 290.578125 268.179688 289.019531 268.015625 287.464844 C 267.902344 286.296875 267.570312 285.1875 267.070312 284.128906 C 269.125 285.074219 271.460938 285.910156 274.1875 286.519531 C 287.476562 289.578125 292.871094 285.351562 293.375 287.910156 C 290.535156 290.746094 287.257812 293.246094 283.53125 294.855469 C 287.144531 293.800781 290.425781 291.800781 293.316406 289.410156 C 293.09375 290.632812 292.59375 292.46875 291.871094 295.078125 C 290.59375 299.691406 291.425781 303.359375 292.984375 306.304688 C 292.929688 306.304688 292.871094 306.304688 292.816406 306.304688 C 292.316406 306.25 291.761719 306.25 291.261719 306.304688 C 290.203125 306.363281 289.203125 306.417969 288.203125 306.582031 C 286.199219 306.917969 284.199219 307.527344 282.363281 308.585938 C 280.582031 309.585938 279.027344 311.195312 278.359375 313.140625 C 278.023438 314.085938 277.859375 315.140625 277.859375 316.144531 C 277.859375 317.144531 278.023438 318.144531 278.246094 319.144531 C 278.082031 318.144531 277.914062 317.144531 277.96875 316.144531 C 278.023438 315.140625 278.191406 314.140625 278.582031 313.199219 C 279.304688 311.308594 280.804688 309.863281 282.585938 308.972656 C 284.363281 308.027344 286.3125 307.527344 288.257812 307.304688 C 289.257812 307.195312 290.257812 307.140625 291.261719 307.140625 C 291.761719 307.140625 292.261719 307.195312 292.761719 307.25 C 293.039062 307.304688 293.316406 307.304688 293.59375 307.363281 C 294.984375 309.585938 296.652344 311.417969 298.042969 312.976562 C 297.765625 313.476562 297.433594 313.917969 297.042969 314.363281 C 295.988281 315.585938 294.707031 316.644531 293.316406 317.476562 C 291.925781 318.367188 290.425781 319.03125 288.867188 319.421875 C 288.089844 319.644531 287.257812 319.753906 286.476562 319.8125 C 285.644531 319.867188 284.863281 319.8125 284.03125 319.644531 C 285.585938 320.144531 287.3125 320.144531 288.980469 319.8125 C 290.59375 319.476562 292.148438 318.8125 293.59375 317.921875 C 294.984375 317.03125 296.320312 315.921875 297.320312 314.640625 C 297.65625 314.199219 297.988281 313.699219 298.265625 313.253906 C 300.546875 315.863281 301.660156 317.699219 298.15625 319.476562 C 298.15625 319.476562 300.378906 314.140625 287.644531 324.257812 C 280.582031 329.816406 273.410156 329.09375 268.515625 328.59375 C 268.460938 328.703125 268.460938 328.757812 268.460938 328.871094 C 268.347656 329.316406 268.347656 329.703125 268.460938 330.148438 C 268.570312 330.59375 268.792969 331.039062 269.125 331.539062 C 269.460938 331.980469 269.851562 332.425781 270.292969 332.871094 C 270.515625 333.09375 270.738281 333.316406 271.019531 333.484375 L 271.460938 333.871094 C 271.628906 334.039062 271.742188 334.148438 271.90625 334.316406 C 272.464844 334.984375 272.910156 335.707031 273.1875 336.484375 C 273.464844 337.261719 273.632812 338.039062 273.742188 338.816406 C 273.910156 340.375 273.796875 341.820312 273.574219 343.207031 C 273.132812 346.042969 272.40625 348.710938 271.742188 351.378906 C 271.074219 354.046875 270.351562 356.714844 269.90625 359.382812 C 269.460938 362.050781 269.238281 364.828125 269.570312 367.496094 C 269.90625 370.164062 270.90625 372.832031 272.628906 375 C 270.738281 372.941406 269.515625 370.332031 269.015625 367.605469 C 268.515625 364.828125 268.570312 362.050781 268.847656 359.269531 C 269.125 356.492188 269.683594 353.769531 270.183594 351.046875 C 270.683594 348.320312 271.238281 345.652344 271.460938 342.988281 C 271.574219 341.652344 271.574219 340.375 271.351562 339.152344 C 271.128906 337.929688 270.683594 336.875 269.960938 336.152344 L 269.683594 335.871094 L 269.347656 335.648438 C 269.070312 335.429688 268.738281 335.207031 268.460938 334.984375 C 267.902344 334.484375 267.292969 333.984375 266.792969 333.371094 C 266.289062 332.761719 265.789062 332.039062 265.457031 331.148438 C 265.121094 330.316406 265.066406 329.316406 265.179688 328.425781 C 263.957031 328.480469 263.175781 328.757812 262.84375 329.59375 C 261.398438 333.425781 255.78125 330.035156 254.722656 326.757812 C 252.332031 319.144531 237.09375 319.144531 242.824219 312.917969 C 242.933594 312.808594 243.046875 312.695312 243.101562 312.53125 C 242.210938 312.640625 241.210938 312.53125 240.433594 312.195312 C 239.429688 311.808594 238.652344 311.253906 237.984375 310.640625 C 237.316406 310.03125 236.707031 309.363281 236.207031 308.75 L 236.039062 308.527344 C 235.984375 308.472656 235.984375 308.417969 235.925781 308.363281 C 235.816406 308.25 235.761719 308.195312 235.648438 308.085938 C 235.425781 307.917969 235.203125 307.75 234.925781 307.640625 C 234.371094 307.363281 233.757812 307.25 233.089844 307.140625 C 231.699219 306.972656 230.199219 307.140625 228.699219 307.363281 C 227.195312 307.585938 225.695312 307.972656 224.195312 308.363281 C 218.1875 309.972656 212.238281 312.085938 206.007812 313.476562 C 202.894531 314.140625 199.78125 314.699219 196.554688 314.585938 C 194.941406 314.53125 193.386719 314.363281 191.828125 313.917969 C 190.269531 313.308594 188.824219 312.585938 187.601562 311.585938 M 280.917969 325.648438 C 280.75 324.8125 280.695312 323.921875 280.695312 323.089844 C 280.695312 322.257812 280.859375 321.367188 281.027344 320.589844 C 281.472656 318.976562 282.25 317.421875 283.363281 316.144531 C 284.417969 314.863281 285.753906 313.753906 287.199219 312.917969 C 287.921875 312.53125 288.703125 312.140625 289.480469 311.972656 C 290.148438 311.808594 290.816406 311.695312 291.480469 311.753906 C 291.480469 312.476562 291.203125 313.199219 290.816406 313.917969 C 290.371094 314.753906 289.757812 315.476562 289.148438 316.144531 C 288.480469 316.808594 287.757812 317.476562 286.976562 317.976562 C 286.589844 318.253906 286.144531 318.476562 285.699219 318.644531 C 285.253906 318.8125 284.808594 318.976562 284.308594 318.921875 C 284.808594 319.03125 285.308594 318.976562 285.808594 318.867188 C 286.3125 318.753906 286.753906 318.53125 287.199219 318.308594 C 288.089844 317.867188 288.925781 317.253906 289.648438 316.585938 C 290.371094 315.921875 291.09375 315.140625 291.59375 314.253906 C 292.09375 313.363281 292.539062 312.363281 292.429688 311.195312 L 292.371094 310.863281 L 292.039062 310.808594 C 291.039062 310.585938 290.09375 310.75 289.257812 310.972656 C 288.367188 311.253906 287.535156 311.585938 286.8125 312.03125 C 285.253906 312.917969 283.917969 314.140625 282.808594 315.53125 C 282.25 316.253906 281.804688 316.976562 281.417969 317.808594 C 281.027344 318.644531 280.75 319.476562 280.582031 320.367188 C 280.195312 322.199219 280.359375 323.980469 280.917969 325.648438 M 249.386719 296.078125 C 250.886719 296.300781 252.386719 296.191406 253.890625 295.800781 C 255.335938 295.414062 256.78125 294.691406 257.949219 293.691406 C 259.117188 292.6875 260.0625 291.355469 260.507812 289.855469 C 261.007812 288.355469 261.117188 286.742188 260.898438 285.242188 L 260.839844 284.851562 L 260.453125 284.851562 C 259.171875 284.796875 258.117188 285.351562 257.171875 285.964844 C 256.226562 286.574219 255.390625 287.355469 254.722656 288.242188 C 254.054688 289.132812 253.5 290.132812 253.222656 291.1875 C 252.945312 292.246094 252.945312 293.46875 253.5 294.414062 C 253.109375 293.410156 253.277344 292.300781 253.667969 291.355469 C 254.054688 290.410156 254.613281 289.523438 255.335938 288.742188 C 256.003906 287.964844 256.835938 287.296875 257.726562 286.742188 C 258.449219 286.296875 259.285156 285.964844 260.0625 285.910156 C 260.171875 287.1875 260.0625 288.464844 259.671875 289.632812 C 259.226562 290.964844 258.503906 292.1875 257.449219 293.132812 C 256.449219 294.132812 255.167969 294.855469 253.832031 295.355469 C 252.332031 295.800781 250.886719 296.023438 249.386719 296.078125 " fill-opacity="1" fill-rule="nonzero"/></g></svg>